<svg id="Layer_1" data-name="Layer 1" xmlns="http://www.w3.org/2000/svg" xmlns:xlink="http://www.w3.org/1999/xlink" viewBox="0 0 1000 1000"><defs><style>.cls-1{fill:none;}.cls-2{clip-path:url(#clip-path);}.cls-3{fill:#f74a2d;}</style><clipPath id="clip-path"><rect class="cls-1" y="-25" width="999.88" height="1050.84"/></clipPath></defs><g class="cls-2"><path class="cls-3" d="M339.15,543.93V501.77h252q57.3,0,97.23-37.38Q728,427,728,358q0-51-41.83-91.52-41.84-40.72-95.09-40.72H232.41v758H190.58V183.62H591.12q70.85,0,124.8,52.95t54,121.46q0,84.08-52.3,135.11-52.29,50.79-126.46,50.79Zm0,84.33V586.09h252q90.57,0,155.47-64,64.89-64.2,64.89-164.1,0-86-66.32-151.17-66.55-65.4-154-65.4H148.74V983.77h-41.6V99.54h484q68.94,0,129.56,35.69a268,268,0,0,1,96.74,95.59q35.9,59.9,35.9,127.21,0,115.23-77.5,192.61-77.49,77.61-184.7,77.62Zm0,84.08V670.18h252q81.3,0,151-40.25,69.4-40.48,111.25-112.59Q895.16,445,895.16,358q0-79.06-41.6-148.29Q812.19,140.26,742.07,98.82q-70.37-41.44-151-41.45H65.3v926.4H23.46V15.21H591.12q91.05,0,171.16,47.19,80.1,47,127.41,126.26T937,358q0,104-44.45,183Q848.1,619.87,772,664.43L880.18,983.77H836L732.56,684.31q-23.05,9.35-35.18,12.94l96.75,286.52h-44l-94.61-276.7q-5.22,1.2-37.32,4.08l90.09,272.62H664.1L575.43,712.34H537.64L622.5,983.77H578.29L493,712.34ZM316.09,309.88V983.77H274.25V268H591.12q38.75,0,67,26.59,28.05,26.59,28.05,63.49,0,101.58-95.09,101.57h-252V417.68h252q25,0,39.22-13.18,14-13.17,14-46.47,0-20.61-15.22-34.26-15.45-13.89-38-13.89Zm0,0"/></g></svg>